<?xml version="1.0" encoding="UTF-8" standalone="no"?>
<!DOCTYPE svg PUBLIC "-//W3C//DTD SVG 1.1//EN" "http://www.w3.org/Graphics/SVG/1.1/DTD/svg11.dtd">
<svg width="246" height="199" viewBox="0 0 246 199" fill="none" xmlns="http://www.w3.org/2000/svg">
	<path fill-rule="evenodd" clip-rule="evenodd" d="M81.34 20.1399C74.9389 26.9095 72.6042 35.7177 72.6184 41.2557C72.6619 58.19 79.9138 67.6684 88.464 72.6232C96.0241 77.0043 104.865 77.9994 111.443 76.9709L111.379 51.8206L120.379 51.7975L120.404 61.4757C126.77 70.8555 138.485 76.8846 154.339 79.4069C155.05 73.2326 155.256 67.3219 155.127 62.8319C154.517 42.531 148.531 30.2613 141.052 22.7685C133.511 15.213 123.92 11.981 115.164 10.8068C97.9503 8.49864 87.5285 13.5952 81.34 20.1399ZM163.282 80.4261C164.05 73.7486 164.262 67.4038 164.124 62.5712L164.124 62.565C163.462 40.534 156.876 25.883 147.422 16.4106C138.03 7.00047 126.324 3.22275 116.36 1.88666C96.6209 -0.760169 83.204 5.06928 74.8006 13.9564C66.6097 22.6187 63.5991 33.7483 63.6184 41.2788C63.6698 61.2815 72.5172 73.7841 83.9515 80.4102C95.0547 86.8445 108.276 87.5514 117.239 84.8781L120.461 83.917L120.438 74.8461C128.747 81.9234 140.006 86.2334 152.96 88.2929C152.593 90.1308 152.174 91.9431 151.698 93.699C150.278 98.94 148.434 103.367 146.198 106.458C143.997 109.499 141.727 110.86 139.336 111.03C135.212 111.324 133.077 110.245 132.043 109.262C130.995 108.266 130.475 106.807 130.627 105.112C130.939 101.636 133.9 98.2592 138.965 98.9838L140.24 90.0745C129.43 88.5282 122.376 96.3625 121.663 104.307C121.303 108.321 122.518 112.626 125.843 115.786C129.182 118.959 134.059 120.429 139.976 120.007C145.882 119.586 150.316 116.119 153.489 111.734C156.627 107.397 158.827 101.799 160.385 96.0531C160.977 93.8686 161.487 91.6176 161.925 89.3454C165.601 89.6349 169.38 89.7697 173.236 89.7598L173.213 80.7598C169.775 80.7686 166.462 80.6571 163.282 80.4261Z" fill="white"/>
	<path d="M86.7332 193.55C84.2999 193.55 82.2665 193.083 80.6332 192.15C78.9999 191.183 77.7665 189.783 76.9332 187.95C76.0999 186.117 75.6332 183.867 75.5332 181.2L81.8832 179.95C81.9499 181.517 82.1332 182.9 82.4332 184.1C82.7665 185.3 83.2499 186.233 83.8832 186.9C84.5499 187.533 85.4165 187.85 86.4832 187.85C87.6832 187.85 88.5332 187.5 89.0332 186.8C89.5332 186.067 89.7832 185.15 89.7832 184.05C89.7832 182.283 89.3832 180.833 88.5832 179.7C87.7832 178.567 86.7165 177.433 85.3832 176.3L80.2832 171.8C78.8499 170.567 77.6999 169.2 76.8332 167.7C75.9999 166.167 75.5832 164.283 75.5832 162.05C75.5832 158.85 76.5165 156.383 78.3832 154.65C80.2499 152.917 82.7999 152.05 86.0332 152.05C87.9332 152.05 89.5165 152.35 90.7832 152.95C92.0499 153.517 93.0499 154.317 93.7832 155.35C94.5499 156.383 95.1165 157.567 95.4832 158.9C95.8499 160.2 96.0832 161.583 96.1832 163.05L89.8832 164.15C89.8165 162.883 89.6665 161.75 89.4332 160.75C89.2332 159.75 88.8499 158.967 88.2832 158.4C87.7499 157.833 86.9499 157.55 85.8832 157.55C84.7832 157.55 83.9332 157.917 83.3332 158.65C82.7665 159.35 82.4832 160.233 82.4832 161.3C82.4832 162.667 82.7665 163.8 83.3332 164.7C83.8999 165.567 84.7165 166.467 85.7832 167.4L90.8332 171.85C92.4999 173.25 93.9165 174.9 95.0832 176.8C96.2832 178.667 96.8832 180.933 96.8832 183.6C96.8832 185.533 96.4499 187.25 95.5832 188.75C94.7499 190.25 93.5665 191.433 92.0332 192.3C90.5332 193.133 88.7665 193.55 86.7332 193.55ZM100.69 193L100.69 152.5L108.09 152.5L108.09 187.9L117.89 187.9L117.89 193L100.69 193ZM131.697 193.55C128.83 193.55 126.547 193.017 124.847 191.95C123.147 190.883 121.93 189.35 121.197 187.35C120.464 185.35 120.097 182.983 120.097 180.25L120.097 165.1C120.097 162.367 120.464 160.033 121.197 158.1C121.93 156.133 123.147 154.633 124.847 153.6C126.547 152.567 128.83 152.05 131.697 152.05C134.63 152.05 136.93 152.567 138.597 153.6C140.297 154.633 141.514 156.133 142.247 158.1C143.014 160.033 143.397 162.367 143.397 165.1L143.397 180.3C143.397 183 143.014 185.35 142.247 187.35C141.514 189.317 140.297 190.85 138.597 191.95C136.93 193.017 134.63 193.55 131.697 193.55ZM131.697 188.1C132.93 188.1 133.83 187.833 134.397 187.3C134.997 186.767 135.397 186.033 135.597 185.1C135.797 184.167 135.897 183.15 135.897 182.05L135.897 163.4C135.897 162.267 135.797 161.25 135.597 160.35C135.397 159.45 134.997 158.75 134.397 158.25C133.83 157.717 132.93 157.45 131.697 157.45C130.53 157.45 129.647 157.717 129.047 158.25C128.447 158.75 128.047 159.45 127.847 160.35C127.647 161.25 127.547 162.267 127.547 163.4L127.547 182.05C127.547 183.15 127.63 184.167 127.797 185.1C127.997 186.033 128.397 186.767 128.997 187.3C129.597 187.833 130.497 188.1 131.697 188.1ZM148.321 193L148.321 152.5L153.471 152.5L163.321 175.6L163.321 152.5L169.421 152.5L169.421 193L164.521 193L154.621 168.8L154.621 193L148.321 193Z" fill="white"/>
</svg>
